<svg version="1" xmlns="http://www.w3.org/2000/svg" width="933.333" height="933.333" viewBox="0 0 700.000000 700.000000"><path d="M121.8 37.1c-1.5 1.1-7.2 9.3-12.8 18.2-5.6 8.9-10.5 16.9-11.1 17.7-.5.8-9.5 15.2-19.9 32-10.4 16.8-19.4 31.2-20 32-2.6 3.9-15.1 23.7-15.7 25-.3.8-2.3 4-4.3 7s-6 9.3-8.9 14c-2.8 4.7-5.6 9.2-6.1 10-7.7 12-22 35.5-22.5 37.1-1.7 5.2.4 8.7 20.2 33.1 10.7 13.4 21.4 26.6 23.7 29.4 2.2 2.8 5.5 6.8 7.1 8.9 1.7 2.1 7.1 8.8 12 14.9 5 6.1 17.4 21.4 27.5 34.1 10.1 12.6 18.7 23.2 19 23.5.3.3 3 3.6 6 7.5 3 3.8 5.7 7.2 6 7.5.3.3 8.8 10.8 19 23.5 10.1 12.6 23.4 29.1 29.4 36.5 6 7.4 19.6 24.3 30.2 37.5 10.6 13.2 26.4 32.8 35 43.5 8.7 10.7 25 31 36.2 45 11.3 14 21.7 26.9 23.1 28.5 1.4 1.7 4 4.8 5.6 6.9 2.8 3.6 7.2 9.2 11.3 14.1 1 1.1 7.9 9.8 15.4 19.2 7.6 9.4 15.1 18.1 16.7 19.2 3.6 2.6 7.7 2.7 11.7.2 1.7-1 13.3-14.6 25.9-30.2 28.6-35.5 47.5-58.9 65.8-81.7 17.8-22.1 84.8-105.2 86.4-107.2 3.7-4.6 12.2-15.2 15-18.6 10.9-13.6 59.7-74.3 61.1-75.9.9-1.1 4.2-5.2 7.2-9 3-3.9 6.3-7.9 7.3-9 1.1-1.1 3.1-3.6 4.5-5.5 1.5-1.9 5.6-7.1 9.2-11.5 3.6-4.4 7-8.7 7.7-9.5.7-.8 12.9-16 27.1-33.7 14.3-17.7 26.2-32.9 26.6-33.8 1.4-3.9.3-7.6-4.8-16.1-2.9-4.9-15.3-24.8-27.5-44.2C655 157.8 645 141.5 645 141s-.3-1-.8-1.2c-.4-.2-14.9-23-32.2-50.7-22.8-36.5-32.2-50.9-34.5-52.2-2.9-1.8-10.4-1.9-228-1.9-223.6.1-225 .1-227.7 2.1zM325 58.6c0 .2-5.1 6.5-11.3 14.1-6.2 7.6-20 24.5-30.6 37.7-10.6 13.1-20.1 24.8-21.1 26-1 1.1-6 7.3-11.1 13.6-9.5 11.8-18.1 22.4-37.4 46-6 7.4-11.4 13.7-11.9 14-.5.3-3.6-6.7-6.8-15.5-3.2-8.8-11.5-31.5-18.5-50.5-6.9-19-13.9-38.1-15.5-42.5-1.7-4.4-4.7-12.7-6.8-18.5-2.1-5.8-4.9-13.5-6.3-17.2-1.4-3.6-2.3-6.8-2.1-7.1.5-.4 179.4-.6 179.4-.1zm229.3.9c-.1.5-1.3 3.9-2.6 7.5-1.4 3.6-6.3 17.1-11.1 30-4.8 12.9-9.1 24.4-9.6 25.5-.5 1.1-2 5.1-3.4 9-1.4 3.8-5.7 15.5-9.6 26-3.9 10.4-9.9 26.5-13.3 35.7-3.4 9.3-6.4 16.8-6.7 16.7-.3 0-4-4.4-8.3-9.8-4.3-5.4-8.6-10.7-9.5-11.7-.9-1.1-6.2-7.5-11.7-14.4-5.5-6.9-10.7-13.4-11.7-14.5-.9-1.1-9.9-12.2-20-24.6-10.1-12.4-19.7-24.3-21.5-26.5-1.8-2.1-10.7-13.1-19.8-24.4-9.2-11.3-17.5-21.5-18.6-22.8-1-1.2-1.9-2.4-1.9-2.5 0-.2 40.4-.3 89.8-.3 59.2.1 89.6.4 89.5 1.1zM356.6 73.2c3.2 4 6.6 8.2 7.6 9.3.9 1.1 13.9 17.1 28.8 35.5s27.9 34.4 28.8 35.5c2.2 2.6 53.3 65.7 54.3 67 .5.7-38.8 1.1-126.1 1.1H223.1l2.7-3.6c1.5-1.9 3.4-4.4 4.4-5.5.9-1.1 7.1-8.8 13.8-17 6.7-8.3 12.9-15.9 13.9-17 .9-1.1 5.4-6.7 10.1-12.5 4.6-5.8 8.7-10.7 9-11 .3-.3 2.3-2.8 4.5-5.5 2.2-2.8 4.7-5.9 5.6-7 5.3-6.4 35.3-43.3 45.9-56.5 15.3-19 16.2-20 17.1-20 .4 0 3.3 3.3 6.5 7.2zm223.8 9.2c1 1.9 10.8 17.7 17.2 27.6 2.6 4.2 12.4 19.9 14.1 22.6 1.7 2.9 36.2 58.1 40.1 64.4 2 3 5 7.7 6.7 10.5 5.5 8.6 8.5 13.4 8.5 13.8 0 .1-33.2.3-73.9.3h-73.8l.7-2.6c.4-1.4 6.2-17 12.9-34.8 6.7-17.7 12.1-32.5 12.1-32.8 0-.3.7-2 1.5-3.7.8-1.8 2.6-6.4 3.9-10.2 3.5-9.8 6.1-16.9 15.6-42.2l8.3-22.3 2.5 3.7c1.4 2 3 4.5 3.6 5.7zM128.9 82c3.8 10.9 16.3 45.4 17.2 47.5.5 1.1 4.3 11.4 8.5 23 4.2 11.5 11.4 31.2 16 43.7 4.6 12.5 8.5 23.3 8.6 24 .2 1-14.9 1.3-72.9 1.3-40.3 0-73.3 0-73.3-.2s40.1-64.6 44.5-71.3c1.2-1.9 9.8-15.7 19-30.5 28-45 28.6-45.8 29.5-44.8.4.4 1.7 3.7 2.9 7.3zM198 271.2c5.2 14.3 10.5 28.8 11.7 32.2 1.2 3.4 7.8 21.4 14.6 40.1 6.9 18.7 17.9 49.1 24.6 67.5 6.7 18.4 12.6 34.4 13.1 35.5.5 1.1 11.5 31.2 24.5 67 13 35.7 24.5 67.2 25.6 69.9 1 2.7 1.7 5.1 1.5 5.3-.2.2-9.2-10.5-19.9-23.9-10.8-13.4-25.6-31.7-32.9-40.8-7.3-9.1-21.7-26.9-31.8-39.5-10.2-12.7-18.7-23.2-19-23.5-.3-.3-5-6.1-10.5-13s-10.2-12.7-10.5-13c-.5-.4-12.5-15.4-45-56-2.9-3.6-6.7-8.3-8.5-10.5-1.8-2.2-15-18.6-29.4-36.5-14.4-17.9-26.7-33.2-27.4-34-.7-.8-3.9-4.9-7.2-9-3.3-4.1-10-12.5-15-18.5-4.9-6.1-10.3-12.8-12-15-1.6-2.1-4.3-5.3-5.9-7.2l-2.8-3.3h152.7l9.5 26.2zm287-25.7c0 .2-7.7 21-17.1 46.2-9.4 25.2-21.5 57.7-26.9 72.3-12.4 33.5-32.8 88.1-43.2 116-4.5 11.8-8.7 23.3-9.5 25.5-2.8 7.9-23.4 63.1-24.8 66.5-.8 1.9-4.1 10.7-7.4 19.5-3.2 8.8-6.4 17.3-7.1 19-1.1 2.9-1.7 1.6-12.1-27-12.2-33.7-17.4-47.7-24.9-68-2.9-7.7-5.3-14.5-5.5-15-.1-.6-.5-1.7-.8-2.5-1-2.3-10.8-29.1-11.7-32-.5-1.4-3.8-10.6-7.5-20.5-5.6-15.1-18.7-51-34-93-1.8-5-7.7-20.9-13-35.5-5.3-14.6-13-35.5-17-46.5s-7.8-21.2-8.4-22.8L213 245h136c74.8 0 136 .2 136 .5zm166.8 14.7c-6.8 8.4-22.7 28.1-35.3 43.8-12.7 15.7-23.7 29.4-24.7 30.5-.9 1.1-11.2 13.9-22.9 28.5s-27.6 34.4-35.4 44c-7.7 9.6-22.6 28.1-33 41-10.4 12.9-19.7 24.4-20.6 25.5-1 1.1-5.5 6.7-10 12.5-4.6 5.8-8.6 10.7-8.9 11-.3.3-3.9 4.8-8 10s-7.7 9.7-8 10c-.8.7-28.9 35.4-31.5 38.9-3.2 4.3-34.7 43.1-35 43.1-.2 0 3.1-8.9 9.4-25.5 2.2-5.6 11.9-31.9 16.2-43.5 5-13.7 20.9-56.5 21.8-58.5.5-1.1 4.8-12.6 9.5-25.5 4.8-12.9 9.1-24.4 9.5-25.5.5-1.1 10-26.5 21.1-56.5 11.1-30 23.5-63.3 27.5-74 4-10.7 9.4-25.2 12.1-32.3l4.7-12.7h153.8l-12.3 15.2z"/></svg>